<?xml version="1.0" encoding="utf-8"?>
<!-- Generator: Adobe Illustrator 27.5.0, SVG Export Plug-In . SVG Version: 6.00 Build 0)  -->
<svg version="1.1" xmlns="http://www.w3.org/2000/svg" xmlns:xlink="http://www.w3.org/1999/xlink" x="0px" y="0px"
	 viewBox="0 0 1122 800" style="enable-background:new 0 0 1122 800;" xml:space="preserve">
<g id="background">
	<rect style="fill:#FFFFFF;" width="1122" height="800"/>
</g>
<g id="object">
	<g>
		<path style="fill:#E5D1BD;" d="M297.954,404.035c0.002-0.264-0.016-0.528-0.06-0.79c-0.411-2.445-2.768-3.204-3.714-5.193
			c-0.422-0.887,0.314-3.731-1.31-3.608c-0.599,0.051-2.631,0.047-4.669,0.171c-1.619-0.513-3.265-0.954-4.829-1.618
			c-3.958-1.68-10.337-9.889-14.837-6.069c-0.87,0.739-1.759,1.5-2.318,2.496c-0.457,0.814-0.667,1.741-0.829,2.661
			c-0.126,0.716-0.497,1.823-0.092,2.405c0.425,0.611,2.226,1.135,2.906,1.482c1.945,0.993,3.89,1.985,5.835,2.978
			c1.908,0.974,4.064,2.299,4.242,4.433c0.039,0.467-0.026,0.944,0.076,1.401c0.115,0.516,0.431,0.961,0.752,1.381
			c1.176,1.539,2.505,3.022,4.012,4.25c2.695,2.194,7.903,0.606,10.883-0.071c0.742-0.169,1.505-0.368,2.1-0.842
			c0.968-0.771,1.285-2.081,1.542-3.291C297.796,405.495,297.949,404.763,297.954,404.035z"/>
		<path style="fill:#CFB2A4;" d="M229.86,365.571c0.907,2.591,1.831,5.217,3.391,7.475c1.244,1.801,2.855,3.313,4.489,4.769
			c10.133,9.028,21.681,16.466,34.092,21.957c4.231-4.782,7.502-10.409,9.563-16.451c-8.899-6.718-17.262-14.146-24.983-22.19
			c-1.579-1.645-3.149-3.34-4.233-5.346c-1.562-2.891-2.016-6.231-2.445-9.489c-1.661-12.633-3.321-25.266-4.982-37.899
			c-1.002-7.622-2.098-15.513-6.192-22.019c-11.353-18.042-35.672-6.405-32.04,13.148
			C210.599,321.48,222.462,344.436,229.86,365.571z"/>
	</g>
	<g>
		<g>
			<polygon style="fill:#827770;" points="204.718,456.863 209.812,502.375 217.022,586.356 224.165,669.547 246.972,668.381 
				256.252,577.589 258.981,500.574 250.272,451.456 			"/>
		</g>
		<g>
			<path style="fill:#363636;" d="M170.573,670.039c-4.01,0.151-10.291-0.892-13.808,1.182c-2.406,1.419-1.633,3.438-2.977,5.229
				c-1.329,1.772-3.68,2.356-5.146,3.993c-1.183,1.321-1.546,3.177-1.677,4.945c-0.331,4.459,0.511,8.912,1.349,13.304
				c0.679,3.561,1.359,7.122,2.038,10.682c0.184,0.962,0.414,2.006,1.174,2.624c0.578,0.47,1.352,0.599,2.089,0.711
				c2.56,0.39,5.314,0.751,7.624-0.417c2.311-1.168,3.648-4.536,1.876-6.424c-0.483-0.514-1.145-0.874-1.492-1.488
				c-0.477-0.844-0.222-1.896,0.045-2.828C164.654,691.122,168.335,680.652,170.573,670.039l73.336-3.886
				c-0.816,10.815-3.081,21.68-4.662,32.415c-0.141,0.959-0.255,2.036,0.329,2.809c0.425,0.563,1.129,0.832,1.676,1.278
				c2.006,1.637,1.126,5.152-1.01,6.615c-2.136,1.463-4.914,1.469-7.502,1.421c-0.745-0.014-1.53-0.039-2.164-0.428
				c-0.835-0.512-1.201-1.517-1.51-2.446c-1.144-3.44-2.288-6.88-3.432-10.32c-1.411-4.243-2.834-8.546-3.096-13.009
				c-0.104-1.77,0.011-3.658,1.009-5.124c1.237-1.817,3.49-2.706,4.573-4.638c1.095-1.953,0.062-3.852,2.26-5.577
				c3.212-2.52,9.576-2.317,13.531-2.996L170.573,670.039z"/>
			<polygon style="fill:#827770;" points="159.385,457.406 151.988,485.332 160.189,564.914 150.553,670.794 172.219,672.563 
				200.33,571.279 222.506,460.463 			"/>
		</g>
		<path style="fill:#CFB2A4;" d="M271.691,476.548c0.969,4.327,2.025,8.636,3.165,12.921c0.243,0.914,0.484,1.918,0.085,2.776
			c-0.338,0.725-1.062,1.18-1.761,1.569c-8.719,4.855-19.579,5.68-28.931,2.198c-4.609-1.716-8.827-4.404-13.511-5.903
			c-7.857-2.515-16.191-1.535-24.281-1.322c-8.023,0.211-14.947-2.034-22.619-2.893c-18.81-2.107-23.824-3.197-41.932,1.915
			c1.003-33.961-5.167-60.283,0.942-92.082c6.03-31.389,12.061-62.778,18.091-94.166c1.017-5.296,2.071-10.701,4.407-15.32
			c10.561-20.887,34.062-24.238,54.641-17.57c10.471,3.393,18.531,15.556,23.447,24.97c6.285,12.033,9.544,25.467,11.778,38.777
			c6.991,41.644,5.999,84.314,12.935,125.967C269.161,464.471,270.343,470.528,271.691,476.548z"/>
		<g>
			<g>
				<g>
					<path style="fill:#534741;" d="M229.68,222.046c0.154,0.436,0.269,0.88,0.337,1.332c0.357,2.368-0.63,4.783-0.293,7.154
						c0.536,3.759,4.268,6.652,4.206,10.448c-0.051,3.105-2.64,5.584-3.38,8.6c-0.808,3.294,0.738,6.843-0.204,10.068
						c-0.818,2.802-3.375,6.478-5.505,8.449c0.66-0.611,5.392,0.53,6.773,0.003c2.115-0.807,2.468-1.498,3.401-3.372
						c0.926-1.861,0.852-3.879,2.1-5.73c1.532-2.271,4.074-3.674,5.336-6.165c1.722-3.399,0.514-7.547,1.359-11.262
						c1.279-5.623,7.167-10.05,6.391-15.765c-0.455-3.352-3.147-5.941-4.344-9.106c-0.908-2.403-0.919-5.038-1.389-7.564
						c-0.47-2.525-1.594-5.174-3.884-6.339c-1.272-0.647-2.75-0.754-4.082-1.267c-2.302-0.887-3.978-2.901-6.131-4.105
						c-3.08-1.723-9.496,0.523-11.932,2.952c-2.418,2.411-1.894,4.94-0.402,7.747C220.524,212.798,227.864,216.919,229.68,222.046z"
						/>
					<g>
						<path style="fill:#EACDB0;" d="M198.67,272.404c0.125,0.419,0.32,0.835,0.608,1.248c1.136,1.63,2.918,2.766,4.779,3.395
							c2.453,0.829,5.093,0.887,7.683,0.875c3.499-0.017,3.747-2.017,4.807-4.993c0.579-1.626,1.06-3.284,1.501-4.952
							c0.242-0.914,0.5-4.302,1.212-4.842c0.483-0.366,2.089,0.086,2.874-0.155c1.244-0.381,2.395-1.296,3.273-2.229
							c1.416-1.504,2.388-3.363,3.341-5.197c1.659-3.189,3.317-6.379,4.976-9.569c1.694-3.259,3.4-6.545,4.407-10.078
							c1.517-5.325,2.063-13.138-1.291-17.861c-3.059-4.308-8.268-6.586-13.142-8.152c-6.454-2.074-13.531-2.137-19.894,0.311
							c-2.569,0.988-5.097,2.42-6.928,4.693c-2.823,3.505-3.567,8.398-4.186,12.986c-0.572,4.235-1.144,8.47-1.715,12.705
							c-0.658,4.871-1.09,10.545,2.04,13.834c1.662,1.746,4.117,2.51,5.429,4.598c1.644,2.615,0.888,5.939,0.448,8.786
							C198.638,269.434,198.232,270.943,198.67,272.404z"/>
					</g>
				</g>
				<path style="fill:#534741;" d="M188.527,197.085c-2.238,1.079-4.864,1.671-6.977,3.025c-4.119,2.641-5.764,7.782-6.785,12.567
					c-0.908,4.26-3.489,7.717-3.854,12.265c-0.246,3.055,0.465,6.322,2.575,8.545c2.628,2.768,7.328,4.016,8.033,7.766
					c0.765,4.074-4.062,8.129-2.285,11.875c0.98,2.067,3.515,2.814,5.174,4.389c1.851,1.757,2.479,4.397,3.364,6.79
					c0.885,2.393,2.414,4.91,4.912,5.43c0.81-3.796,1.485-6.798,0.504-10.59c-0.571-2.209-2.669-6.478-0.114-8.28
					c1.694-1.578,5.001-1.579,5.506-3.838c0.237-1.061-0.339-2.109-0.761-3.11c-1.634-3.877-1.01-8.522,1.246-12.073
					c2.257-3.551,6.006-6.026,10.064-7.137c4.756-1.302,4.251-2.498,6.295-6.44c1.881-3.627,4.23-4.124,7.952-4.881
					c3.341-0.68,4.485-1.279,6.173-3.974c1.234-1.972,2.742-4.329,1.966-6.93c-0.616-2.067-2.107-3.741-3.554-5.34
					c-3.024-3.341-6.457-6.901-10.935-7.404c-2.487-0.279-5.01,0.445-7.493,0.128c-1.656-0.212-3.218-0.877-4.848-1.237
					c-2.779-0.613-5.886-0.311-8.46,0.933c-2.596,1.255-2.858,3.025-4.57,5.172C190.815,195.787,189.727,196.506,188.527,197.085z"
					/>
				<path style="fill:#534741;" d="M201.336,183.238c0.924-2.578,1.292-6.093-1.08-7.462c-1.299-0.75-2.958-0.501-4.349-1.064
					c-2.964-1.199-3.32-5.125-4.434-8.122c-0.167-0.449-0.379-0.911-0.773-1.183c-0.564-0.388-1.314-0.276-1.997-0.319
					c-3.135-0.196-4.903-3.654-7.586-5.288c-3.321-2.022-8.233-0.623-9.991,2.845c-0.722,1.425-0.946,3.059-1.643,4.496
					c-2.823,5.825-12.297,6.765-13.706,13.083c-0.952,4.269,2.488,9.168,0.114,12.842c-1.518,2.349-5.113,3.475-5.245,6.269
					c-0.085,1.797,1.56,3.338,3.333,3.642c1.773,0.304,3.579-0.365,5.128-1.28c2.459-1.454,4.493-3.528,6.871-5.109
					c2.379-1.581,5.36-2.668,8.082-1.802c2.636,0.839,4.688,3.394,7.454,3.443c2.212,0.039,4.161-1.579,6.368-1.726
					c2.066-0.138,3.972,1.017,5.981,1.518c2.009,0.5,4.701-0.093,5.133-2.118c0.105-0.491,0.061-1.025,0.303-1.465
					c0.677-1.231,2.904-0.739,3.574-1.975c-0.756-1.832-2.361-1.524-2.725-3.801C199.868,186.899,200.756,184.857,201.336,183.238z"
					/>
			</g>
		</g>
	</g>
	<g>
		<g>
			<path style="fill:#E5D1BD;" d="M436.652,672.67c-3.012,0.305-5.951-0.297-8.936-0.279c-1.312-10.528-2.144-20.803-1.173-31.518
				c4.834,3.93,9.089,1.143,10.183,10.092C437.08,653.862,435.468,668.075,436.652,672.67z"/>
			<path style="fill:#333333;" d="M426.411,666.709c-1.846-0.188-2.877,0.792-4.027,1.951c-0.668,0.673-1.062,1.685-1.821,2.26
				c-0.758,0.576-1.607,0.688-2.616,0.831c-5.313,0.751-17.597,1.344-10.496,9.839c6.449,7.715,21.913,3.531,30.892,0.808
				c0.591-0.179,1.235-0.314,1.66-0.797c0.425-0.484,0.661-1.182,0.815-1.866c0.854-3.805,2.004-8.843-2.757-10.16
				c-2.031-0.562-3.927,0.86-6.1,0.238C430.183,669.303,428.257,666.898,426.411,666.709z"/>
		</g>
		<g>
			<polygon style="fill:#4D4D4D;" points="468.986,361.268 463.01,425.741 454.551,544.711 446.172,662.563 419.417,660.911 
				408.531,532.293 405.33,423.19 415.546,353.607 			"/>
		</g>
	</g>
	<g>
		<g>
			<g>
				<path style="fill:#E5D1BD;" d="M526.828,674.546c-2.965,0.611-5.95,0.313-8.918,0.637c-2.382-10.338-4.261-20.474-4.39-31.232
					c5.211,3.415,9.159,0.207,11.161,8.997C525.33,655.793,525.18,670.096,526.828,674.546z"/>
				<path style="fill:#333333;" d="M516.032,669.664c-1.856,0.001-2.781,1.082-3.806,2.352c-0.595,0.738-0.884,1.784-1.58,2.435
					c-0.695,0.65-1.529,0.849-2.518,1.094c-5.208,1.291-17.368,3.136-9.434,10.86c7.204,7.015,22.159,1.272,30.813-2.356
					c0.569-0.239,1.197-0.439,1.57-0.963c0.373-0.525,0.537-1.244,0.62-1.94c0.461-3.873,1.089-9.002-3.782-9.824
					c-2.078-0.351-3.819,1.257-6.044,0.861C520.048,671.859,517.887,669.663,516.032,669.664z"/>
			</g>
		</g>
		<g>
			<polygon style="fill:#4D4D4D;" points="522.166,362.037 530.843,401.597 521.223,514.336 532.526,664.329 507.111,666.836 
				474.134,523.354 448.118,366.367 			"/>
		</g>
	</g>
	<g>
		<g>
			<g>
				<g>
					<g>
						<g>
							<path style="fill:#333333;" d="M701.026,681.141H318.069V435.954c0-5.787,4.691-10.479,10.479-10.479h362
								c5.787,0,10.479,4.691,10.479,10.479V681.141z"/>
						</g>
						<rect x="333.336" y="443.185" style="fill:#F2F2F2;" width="352.526" height="223.843"/>
					</g>
				</g>
				<g>
					<path style="fill:#C2C4C4;" d="M725.696,715.358l-432.375-1.229c-9.974-0.028-19.213-5.25-24.382-13.781l0,0l481.217,1.367
						l-0.001,0.001C744.938,710.217,735.67,715.386,725.696,715.358z"/>
					<path style="fill:#CDD1D1;" d="M746.681,704.002H272.414c-2.249,0-4.072-1.823-4.072-4.072v-16.526
						c0-2.249,1.823-4.072,4.072-4.072h474.267c2.249,0,4.072,1.823,4.072,4.072v16.526
						C750.753,702.179,748.93,704.002,746.681,704.002z"/>
				</g>
			</g>
			<rect x="333.336" y="456.358" style="fill:#8EB3BA;" width="352.316" height="113.929"/>
			<g>
				<g>
					<rect x="358.54" y="582.058" style="fill:#B3C1C4;" width="96.558" height="56.335"/>
					<rect x="460.027" y="582.058" style="fill:#B3C1C4;" width="96.558" height="56.335"/>
					<rect x="561.515" y="582.058" style="fill:#B3C1C4;" width="96.558" height="56.335"/>
				</g>
				<rect x="357.849" y="643.907" style="fill:#B3C1C4;" width="53.204" height="6.061"/>
				<rect x="460.027" y="643.907" style="fill:#B3C1C4;" width="53.204" height="6.061"/>
				<rect x="561.515" y="643.907" style="fill:#B3C1C4;" width="53.204" height="6.061"/>
			</g>
			<polygon style="opacity:0.15;fill:#FFFFFF;" points="468.285,443.185 355.382,667.028 332.581,667.028 332.581,443.664 			"/>
		</g>
		<path style="opacity:0.14;" d="M543.449,694.929h-67.804c-2.223,0-4.026-1.802-4.026-4.026v-0.675
			c0-2.223,1.803-4.026,4.026-4.026h67.804c2.224,0,4.026,1.803,4.026,4.026v0.675C547.475,693.127,545.673,694.929,543.449,694.929
			z"/>
	</g>
	<g>
		<g>
			<g>
				<path style="fill:#EACDB0;" d="M416.673,241.34c4.926-0.452,9.852-0.903,14.777-1.355c0.077-3.944-0.162-7.894-0.713-11.8
					c4.113-1.412,8.87-3.54,9.616-7.825c0.235-1.349,0.012-2.732-0.212-4.083c-0.923-5.587-1.846-11.174-2.769-16.761
					c-0.319-1.932-0.659-3.922-1.697-5.583c-1.82-2.915-5.385-4.211-8.767-4.824c-8.63-1.564-18.059,0.239-24.8,5.849
					c-1.794,1.493-3.42,3.292-4.222,5.484c-1.237,3.38-0.358,7.124,0.53,10.611c0.82,3.219,1.64,6.438,2.46,9.657
					c0.943,3.702,2.313,7.913,5.863,9.325c1.885,0.75,4.118,0.551,5.822,1.653C415.566,233.63,415.126,238.115,416.673,241.34z"/>
				<path style="fill:#3A3029;" d="M367.214,185.325c-0.838-1.4-1.743-2.751-2.756-4.02c-2.196-2.748-4.908-5.109-6.669-8.154
					c-1.76-3.045-2.357-7.16-0.198-9.936c1.394-1.792,3.641-2.676,5.823-3.301c7.191-2.059,14.936-2.145,22.171-0.246
					c6.891,1.808,13.048,4.764,20.017,2.22c6.548-2.39,11.257-1.362,18.064,1.123c7.366,2.69,17.276,3.384,23.933,7.154
					c2.78,1.574,4.99,4.018,6.706,6.713c5.947,9.335,5.886,22.146-0.15,31.424c-1.354,2.082-2.97,3.981-4.667,5.794
					c-3.512,3.753-7.714,8.389-12.517,9.754c-0.083-4.288,3.923-17.78,0.656-21.318c-5.185-5.615-17.014-3.757-23.507-2.432
					c-7.082,1.446-13.422,6.407-20.44,7.425c-5.05,0.733-11.47-1.789-15.741-4.428C372.669,199.839,370.274,190.434,367.214,185.325
					z"/>
			</g>
		</g>
		<path style="fill:#D1D3D3;" d="M441.755,240.239c28.016,13.107,40.26,60.059,53.432,87.444
			c9.016,18.745,21.301,39.961,40.562,41.513c12.443,1.002,23.77-6.88,33.794-14.798c-3.108,16.44-7.777,35.12-21.74,42.078
			c-10.31,5.137-22.679,2.076-33.553,5.631c-11.73,3.834-21.384,15.209-33.678,14.808c-9.329-0.305-17.41-7.456-26.587-9.436
			c-14.185-3.06-27.577,6.47-39.825,14.574c-3.566,2.359-7.704,4.715-11.759,3.464c-5.205-1.605-7.526-8.215-8.413-14.024
			c-4.048-26.5,5.351-51.924,8.07-77.839c2.441-23.257-8.41-43.992-5.533-67.605c2.024-16.616,13.761-28.441,29.156-29.145
			C431.401,236.64,436.784,237.895,441.755,240.239z"/>
	</g>
	<g>
		<path style="fill:#D1D3D3;" d="M370.626,311.69c-2.323,7.356-4.902,15.329-6.272,22.867c-1.335,7.352,5.576,15.821,9.605,21.294
			c0.634,0.861,1.306,1.754,2.27,2.215c2.058,0.986,4.426-0.35,6.31-1.637c3.732-2.548,7.464-5.096,11.197-7.645
			c0.768-0.524,1.575-1.095,1.939-1.951c0.341-0.801,0.234-1.713,0.107-2.574c-0.616-4.17-1.56-8.293-2.821-12.315
			c-1.135-3.621-0.395-7.66,0.182-11.547c0.504-3.394,1.717-6.624,3.997-9.232c9.474-10.839,19.62-20.718,30.323-29.525
			c2.366-1.947,4.809-3.899,6.513-6.766c3.123-5.258,3.174-13.033,0.821-19.269c-2.353-6.236-6.809-10.982-11.715-13.828
			c-3.516-2.04-7.461-3.202-11.099-2.107c-4.925,1.483-7.148,5.956-10.683,9.195c-3.565,3.267-5.798,5.51-8.087,10.052
			C384.599,276.007,376.373,293.491,370.626,311.69z"/>
	</g>
	<g>
		<path style="fill:#EACDB0;" d="M584.535,255.612c-0.74-2.608-1.107-5.321-1.08-8.032c0.02-2.05,0.054-4.534-1.691-5.61
			c-1.583-0.977-3.781-0.023-4.797,1.535c-1.015,1.558-1.161,3.508-1.277,5.364c-0.321,5.148-0.349,6.208-4.939,8.833
			c-4.752,2.717-18.222,4.346-17.575,10.301c0.125,1.152,0.26,2.331,0.891,3.331c0.516,0.818,1.337,1.47,2.186,2.075
			c0.662,0.471,1.551,1.358,2.471,1.285c0.965-0.076,2.874-1.433,3.753-1.871c2.512-1.252,5.024-2.504,7.536-3.756
			c1.238-0.617,2.663-1.547,3.919-1.129c0.78,0.26,0.954,1.742,2.227,1.947c1.073,0.173,2.158-0.199,3.143-0.658
			c2.263-1.056,4.292-2.611,5.899-4.522c0.557-0.662,1.077-1.396,1.243-2.244c0.252-1.289-0.347-2.572-0.848-3.786
			C585.185,257.674,584.83,256.651,584.535,255.612z"/>
		<path style="fill:#8EB3BA;" d="M501.253,296.912c6.111,0.445,12.219-0.263,19.164-2.122c17.16-4.594,33.704-11.254,48.844-19.664
			c-1.865-6.193-5.346-11.947-10.175-16.821c-13.791,4.64-27.929,8.442-42.234,11.36c-7.009,1.43-13.395,1.785-18.735-1.86
			c-11.889-8.117-22.905-17.015-32.923-26.594c-2.215-2.118-4.443-4.311-7.493-5.661c-5.593-2.476-13.318-1.6-19.23,1.478
			c-5.912,3.078-10.093,8.067-12.336,13.277c-1.607,3.734-2.292,7.79-0.772,11.271c1.572,3.601,5.283,6.179,8.974,8.509
			c16.469,10.396,35.116,18.716,55.177,24.618C493.568,295.896,497.411,296.632,501.253,296.912z"/>
	</g>
	<g>
		<path style="fill:#E5D1BD;" d="M754.478,211.912c0.336-0.009,0.672,0.007,1.006,0.057c3.121,0.464,4.144,3.445,6.697,4.603
			c1.139,0.516,4.741-0.489,4.623,1.581c-0.05,0.764,0.003,3.349-0.106,5.946c0.691,2.048,1.292,4.132,2.174,6.106
			c2.232,4.996,12.831,12.918,8.078,18.736c-0.92,1.125-1.867,2.275-3.121,3.01c-1.025,0.601-2.2,0.89-3.366,1.118
			c-0.909,0.177-2.308,0.676-3.059,0.175c-0.788-0.526-1.497-2.805-1.956-3.663c-1.31-2.451-2.619-4.903-3.929-7.355
			c-1.284-2.405-3.022-5.117-5.743-5.292c-0.595-0.038-1.2,0.055-1.785-0.064c-0.659-0.134-1.234-0.526-1.776-0.924
			c-1.987-1.46-3.906-3.115-5.505-5.003c-2.856-3.377-0.96-10.043-0.169-13.851c0.197-0.948,0.433-1.923,1.021-2.692
			c0.958-1.25,2.617-1.684,4.151-2.04C752.624,212.148,753.552,211.936,754.478,211.912z"/>
		<path style="fill:#6E8E7C;" d="M802.439,301.393c-3.319-1.092-6.682-2.206-9.594-4.137c-2.321-1.54-4.284-3.554-6.176-5.598
			c-11.731-12.679-21.471-27.196-28.756-42.859c5.984-5.498,13.066-9.795,20.706-12.563c8.761,11.164,18.413,21.629,28.834,31.262
			c2.131,1.97,4.326,3.927,6.904,5.259c3.716,1.919,7.977,2.417,12.133,2.884c16.116,1.811,32.232,3.623,48.348,5.434
			c9.723,1.093,19.791,2.299,28.168,7.354c23.23,14.016,9.003,45.241-15.965,41.086
			C859.008,324.851,829.512,310.302,802.439,301.393z"/>
	</g>
	<g>
		<g>
			<g>
				<path style="fill:#E5D1BD;" d="M1074.963,673.46c-1.76,2.675-4.123,4.771-6.175,7.17c-9.272-5.86-17.832-11.898-25.728-19.73
					c6.182-1.519,6.751-7.113,14.703-2.208C1060.338,660.28,1070.589,671.291,1074.963,673.46z"/>
				<path style="fill:#4D4D4D;" d="M1063.294,677.93c-1.429,1.41-1.384,2.869-1.162,4.64c0.129,1.028,0.636,2.024,0.512,3.066
					c-0.124,1.042-0.567,1.838-1.111,2.797c-2.861,5.05-10.742,15.773,1.237,15.564c10.878-0.19,17.901-16.163,21.658-25.6
					c0.247-0.621,0.564-1.237,0.428-1.916c-0.135-0.679-0.535-1.354-1.023-1.948c-2.719-3.304-6.036-7.538-10.379-4.393
					c-1.852,1.341-1.834,3.797-3.806,5.209C1068.033,676.506,1064.722,676.52,1063.294,677.93z"/>
			</g>
			<path style="fill:#8C9193;" d="M1007.752,499.943c3.986,21.18-11.065,54.749-3.459,71.477
				c15.91,34.991,30.446,54.317,54.826,80.578c1.743,1.877,7.237,5.875,9.68,8.22c-4.271,7.284-9.594,12.681-15.487,19.107
				c-33.727-22.25-82.449-39.796-107.067-77.128c-19.46-29.511-31.254-79.868-43.948-115.949
				c-2.103-5.976-5.236-14.578-1.864-20.671c2.587-4.672,6.752-7.089,12.153-9.126c14.452-5.45,33.856-15.777,49.006-8.1
				C978.15,456.742,1004.689,483.669,1007.752,499.943z"/>
		</g>
		<g>
			<g>
				<path style="fill:#E5D1BD;" d="M857.42,685.996c-3.236,0.667-6.493,0.342-9.733,0.695c-2.599-11.283-4.65-22.346-4.791-34.087
					c5.687,3.727,9.996,0.226,12.182,9.82C855.784,665.529,855.621,681.14,857.42,685.996z"/>
				<path style="fill:#4D4D4D;" d="M845.636,680.668c-2.025,0.002-3.035,1.181-4.154,2.567c-0.65,0.805-0.965,1.948-1.724,2.657
					s-1.668,0.926-2.748,1.194c-5.685,1.409-18.955,3.423-10.297,11.853c7.863,7.656,24.184,1.388,33.63-2.572
					c0.621-0.26,1.306-0.479,1.713-1.051c0.408-0.572,0.586-1.357,0.676-2.117c0.503-4.227,1.189-9.825-4.127-10.722
					c-2.268-0.383-4.168,1.372-6.596,0.94C850.02,683.063,847.661,680.666,845.636,680.668z"/>
			</g>
			<path style="fill:#8C9193;" d="M941.98,516.178c-15.558,15.534-60.087,26.938-67.331,44.821
				c-2.906,7.173-12.469,60.222-13.926,97.572c-0.104,2.669,1.118,9.628,1.146,13.156c-8.298,2.379-15.758,1.88-24.702,2.509
				c-6.534-43.037-13.307-118.407-13.307-118.407c8.849-37.639,51.565-80.802,75.269-114.712
				c3.926-5.617,8.517-13.309,15.564-14.254c5.404-0.725,9.671,1.185,14.53,4.345c13.001,8.455,52.307,21.952,55.188,38.796
				C987.56,488.414,953.934,504.242,941.98,516.178z"/>
		</g>
		<path style="fill:#6E8E7C;" d="M935.292,282.706c14.3,12.56,45.595,34.438,53.963,53.885
			c14.82,34.439,20.489,73.816,25.951,112.426c1.818,12.85,3.635,25.701,5.453,38.551c1.789,12.643,1.344,15.577-9.009,16.507
			c-19.186,1.722-58.829-2.605-77.398-9.565c-8.836-3.312-17.34-8.178-26.41-10.244c-13.191-3.005-25.447,3.033-38.208,2.149
			c1.328-13.503,4.341-26.296,4.639-40.181c0.298-13.898-0.582-27.801-1.799-41.602c-2.128-24.121-3.238-48.357-5.223-72.423
			c-1.422-17.236-5.006-30.732,6.752-45.294c6.401-7.927,18.135-21.694,28.748-21.508
			C914.012,265.603,927.299,275.685,935.292,282.706z"/>
		<g>
			<path style="fill:#E5D1BD;" d="M872.788,260.13c3.922,3.706,8.857,6.12,13.318,9.157c4.34,2.954,6.794,6.224,9.41,10.627
				c1.89,3.18,4.174,5.339,8.492,4.267c8.144-2.023,3.366-7.495,3.242-12.832c-0.142-6.1,2.429-12.008,3.497-17.936
				c3.086-17.132-10.29-43.111-30.517-41.622C858.114,213.419,860.885,248.883,872.788,260.13z"/>
		</g>
		<path style="fill:#534741;" d="M899.118,230.614c2.216,1.429,3.437,4.525,2.208,6.858c-0.658,1.249-1.876,2.114-2.63,3.308
			c-2.212,3.501,0.362,8.155,3.603,10.732c3.241,2.577,7.307,4.358,9.492,7.875c11.025-8.932,19.462-21.876,20.232-36.044
			c0.556-10.225-3.514-20.879-11.128-27.804c-8.937-8.128-17.975-7.681-29.607-8.673c-4.788-0.408-9.713-0.803-14.311,0.593
			c-4.188,1.272-7.824,3.952-11.97,5.352c-6.865,2.319-15.585,1.477-20.008,7.217c-2.559,3.321-2.714,8.039-1.299,11.984
			c1.416,3.946,4.191,7.249,7.133,10.234c3.96,4.019,8.327,7.637,13.012,10.782c-2.225-1.493,5.485-10.09,7.241-10.467
			c4.149-0.891,10.72,3.822,14.971,4.836C890.148,228.375,895.495,228.278,899.118,230.614z"/>
	</g>
	<g>
		<g>
			<g>
				<path style="fill:#304956;" d="M419.676,350.468c1.361,0.053,57.253-47.32,57.253-47.32l3.595-92.621l-63.179,57.297
					L419.676,350.468z"/>
				<path style="fill:#F2D05C;" d="M428.188,316.278c-0.279-18.583-2.619-64.988-15.383-83.968
					c-14.197,17.933-20.126,64.018-21.845,82.523c-0.607,6.529-0.508,12.885,0.218,18.772l6.049,49.065v0
					c3.983,5.604,15.049,6.034,19.455,0.755l0,0l9.833-48.449C427.696,329.163,428.287,322.835,428.188,316.278z"/>
				<path style="fill:#5E89A0;" d="M404.793,371.929c-2.936-0.216-6.039-0.547-9.052-1.213l1.456,11.809l0,0
					c3.983,5.605,15.049,6.034,19.455,0.755v0l2.455-12.095C414.496,372.349,409.499,372.275,404.793,371.929z"/>
				<polygon style="opacity:0.12;" points="448.934,239.175 455.628,321.115 443.731,331.074 445.115,242.639 				"/>
			</g>
			<g>
				<path style="fill:#304956;" d="M606.197,357.707c-1.361-0.053-53.413-51.616-53.413-51.616l3.595-92.621l58.548,62.021
					L606.197,357.707z"/>
				<path style="fill:#F2D05C;" d="M600.361,322.96c1.719-18.506,7.648-64.59,21.845-82.523
					c12.764,18.98,15.104,65.385,15.383,83.968c0.099,6.556-0.492,12.885-1.672,18.698l-9.834,48.449l0,0
					c-4.406,5.279-15.471,4.849-19.455-0.755l0,0l-6.049-49.065C599.853,335.845,599.754,329.489,600.361,322.96z"/>
				<path style="fill:#5E89A0;" d="M619.372,380.257c2.944,0.012,6.063-0.078,9.119-0.508l-2.367,11.66l0,0
					c-4.406,5.279-15.472,4.849-19.455-0.755v0l-1.51-12.249C609.666,379.924,614.654,380.237,619.372,380.257z"/>
				<polygon style="opacity:0.12;" points="585.653,244.481 572.629,325.656 583.718,336.507 589.193,248.231 				"/>
			</g>
			
				<rect x="486.942" y="361.393" transform="matrix(0.9992 0.0388 -0.0388 0.9992 14.6914 -19.7882)" style="fill:#304956;" width="60.91" height="14.784"/>
			<polygon style="fill:#5E89A0;" points="552.704,391.164 479.65,388.329 484.642,373.728 548.859,376.22 			"/>
			<path style="fill:#AE4945;" d="M595.04,172.767c-3.324-41.063-15.868-81.478-35.531-117.632
				c-7.488-13.768-20.051-30.845-31.175-39.925c-11.794,8.191-25.643,24.242-34.175,37.389
				c-22.406,34.52-38.044,73.842-44.541,114.524c-6.909,43.262,0.616,86.012,2.611,129.306c0.98,21.276,1.961,42.551,2.941,63.827
				l59.682,2.316l59.682,2.316c2.627-21.136,5.253-42.272,7.879-63.407C587.759,258.472,598.575,216.434,595.04,172.767z"/>
			<path style="fill:#304956;" d="M557.783,395.603l-82.729-3.211c-0.876-0.034-1.558-0.771-1.524-1.647l0.079-2.049
				c0.034-0.876,0.771-1.558,1.647-1.524l82.729,3.211c0.876,0.034,1.558,0.771,1.524,1.647l-0.08,2.049
				C559.396,394.954,558.658,395.637,557.783,395.603z"/>
			<polygon style="opacity:0.15;" points="487.201,361.5 548.065,363.862 547.683,373.709 487.094,364.257 			"/>
			<polygon style="opacity:0.19;fill:#304956;" points="454.729,360.24 574.093,364.872 578.061,333.495 454.049,329.681 			"/>
			<g>
				<path style="fill:#E79C3F;" d="M551.005,435.035c-0.362-3.5-1.112-6.937-2.37-10.214c-3.957-10.311-12.005-18.784-22.255-21.145
					c-0.184-0.052-0.366-0.109-0.551-0.157c-8.579-2.229-17.449-2.005-25.643,0.894c-1.716,0.532-3.387,1.23-4.983,2.144
					c-2.829,1.446-5.531,3.237-8.058,5.386c-2.736,2.327-5.191,5.086-6.908,8.38c-1.694,3.25-2.621,6.928-3.211,10.608
					c-2.046,12.769-0.336,25.543,2.543,37.344c1.418,5.814,3.131,11.448,4.879,16.96c0.874,2.757,1.852,5.474,2.632,8.203
					c0.294,1.03,2.145,6.085,1.692,6.692c0,0,3.06-4.08,10.368-11.398c2.813,11.461,5.731,21.744,10.972,34.145
					c0,0,8.089-17.527,12.944-31.737c3.354,5.77,7.234,15.841,9.733,23.595c-0.247-0.767,1.076-3.285,1.316-4.044
					c3.547-11.263,7.051-23.015,10.351-35.317C547.812,462.86,552.457,449.059,551.005,435.035z"/>
				<path style="fill:#F2D05C;" d="M536.033,433.178c-0.214-1.987-0.648-3.937-1.37-5.796c-2.269-5.839-6.852-10.627-12.671-11.961
					c-0.105-0.029-0.208-0.061-0.313-0.089c-4.868-1.258-9.901-1.132-14.552,0.503c-0.975,0.3-1.923,0.694-2.83,1.211
					c-1.608,0.817-3.145,1.828-4.582,3.043c-1.558,1.316-2.958,2.877-3.94,4.742c-0.969,1.841-1.505,3.927-1.848,6.015
					c-1.193,7.258-0.247,14.537,1.372,21.28c0.799,3.328,1.768,6.557,2.758,9.719c0.496,1.583,1.051,3.144,1.493,4.713
					c0.167,0.593,1.22,3.501,0.959,3.851c0,0,1.759-2.349,5.953-6.556c1.602,6.592,3.27,12.519,6.274,19.685
					c0,0,4.643-10.123,7.419-18.302c1.61,2.775,3.438,7.294,4.836,11.314c0.244,0.702,1.277,0.679,1.51-0.041
					c0.002-0.005,0.003-0.009,0.004-0.013c2.019-6.492,4.007-13.25,5.873-20.306C534.272,449.03,536.891,441.156,536.033,433.178z"
					/>
			</g>
			<path style="fill:#AE4945;" d="M395.741,370.716c0,0,17.351,3.175,23.366,0.469l1.31-6.163c0,0-14.908,1.508-25.488-0.989
				L395.741,370.716z"/>
		</g>
		<g>
			
				<ellipse transform="matrix(0.7071 -0.7071 0.7071 0.7071 32.0696 421.3341)" style="fill:#AECCDC;" cx="524.63" cy="171.956" rx="43.72" ry="43.72"/>
			<path style="opacity:0.2;fill:#FFFFFF;" d="M497.345,137.431c7.401-4.943,16.375-7.679,25.949-7.308
				c24.128,0.936,42.928,21.255,41.992,45.383c-0.527,13.572-7.186,25.458-17.207,33.094L497.345,137.431z"/>
			<g>
				<path style="fill:#304956;" d="M522.82,218.597c-25.718-0.998-45.83-22.734-44.832-48.452
					c0.998-25.719,22.734-45.83,48.452-44.832s45.83,22.734,44.832,48.452C570.274,199.484,548.538,219.596,522.82,218.597z
					 M526.211,131.223c-22.46-0.872-41.442,16.692-42.314,39.152c-0.872,22.46,16.692,41.442,39.152,42.314
					c22.46,0.872,41.442-16.692,42.314-39.152C566.235,151.076,548.671,132.094,526.211,131.223z"/>
			</g>
		</g>
		<path style="fill:#AE4945;" d="M605.049,381.231c0,0,17.351,3.175,23.366,0.469l1.31-6.163c0,0-14.908,1.508-25.488-0.989
			L605.049,381.231z"/>
	</g>
	<g>
		<g>
			<path id="XMLID_4_" style="fill:#B3D5E3;" d="M895.254,346.122c-1.336,0-2.66,0.049-3.972,0.137
				c-4.437-25.433-26.901-44.783-53.949-44.783c-12.37,0-23.779,4.048-32.947,10.873c-9.907-17.241-28.675-28.875-50.199-28.875
				c-31.849,0-57.667,25.47-57.667,56.888c0,1.991,0.105,3.958,0.307,5.896c-1.308-0.087-2.626-0.136-3.957-0.136
				c-31.849,0-57.667,25.469-57.667,56.888c0,31.418,25.819,56.888,57.667,56.888h202.384c31.849,0,75.828-21.655,75.828-53.073
				C971.082,375.406,927.103,346.122,895.254,346.122z"/>
			<path style="fill:#C3DEE8;" d="M777.589,296.085c-5.341-1.683-11.033-2.594-16.94-2.594c-30.733,0-55.647,24.577-55.647,54.895
				c0,1.921,0.101,3.819,0.296,5.69c-1.262-0.084-2.534-0.131-3.818-0.131c-30.733,0-55.647,24.577-55.647,54.895
				c0,9.957,2.691,19.292,7.391,27.342c-2.123-24.768,1.676-72.056,61.856-70.898C714.465,349.111,717.371,298.416,777.589,296.085z
				"/>
			<path style="fill:#A5C7DD;" d="M720.755,459.897h174.499c31.849,0,75.828-21.655,75.828-53.073c0-6.709-1.186-13.144-3.348-19.12
				C929.815,461.374,783.412,451.038,720.755,459.897z"/>
		</g>
	</g>
	<g>
		<g>
			<path id="XMLID_1_" style="fill:#B3D5E3;" d="M304.818,446.555c-1.336,0-2.66,0.049-3.973,0.137
				c-4.437-25.432-26.901-44.783-53.949-44.783c-12.37,0-23.78,4.049-32.947,10.873c-9.908-17.241-28.675-28.875-50.199-28.875
				c-31.849,0-57.667,25.469-57.667,56.888c0,1.991,0.105,3.958,0.307,5.896c-1.308-0.088-2.626-0.136-3.957-0.136
				c-31.849,0-57.667,25.47-57.667,56.888c0,31.418,25.818,56.888,57.667,56.888h202.384c31.849,0,75.828-21.655,75.828-53.073
				C380.646,475.839,336.667,446.555,304.818,446.555z"/>
			<path style="fill:#C3DEE8;" d="M187.153,396.517c-5.341-1.683-11.033-2.594-16.94-2.594c-30.733,0-55.647,24.577-55.647,54.895
				c0,1.921,0.101,3.819,0.296,5.69c-1.262-0.084-2.534-0.131-3.818-0.131c-30.733,0-55.647,24.577-55.647,54.895
				c0,9.957,2.691,19.292,7.391,27.342c-2.123-24.768,1.676-72.056,61.856-70.898C124.029,449.544,126.935,398.849,187.153,396.517z
				"/>
			<path style="fill:#A5C7DD;" d="M130.32,560.33h174.499c31.849,0,75.828-21.655,75.828-53.073c0-6.709-1.186-13.143-3.348-19.12
				C339.379,561.807,192.977,551.471,130.32,560.33z"/>
		</g>
	</g>
	<g>
		<path style="fill:#E5D1BD;" d="M241.759,444.304c0.071-0.308,0.119-0.621,0.135-0.939c0.154-2.965-2.404-4.464-2.994-7.035
			c-0.263-1.146,1.335-4.28-0.596-4.558c-0.713-0.096-3.088-0.628-5.502-1.012c-1.76-1.02-3.569-1.963-5.225-3.144
			c-4.19-2.99-9.517-14.242-15.769-10.945c-1.209,0.638-2.446,1.297-3.357,2.316c-0.745,0.833-1.231,1.863-1.659,2.895
			c-0.333,0.805-1.054,2.002-0.732,2.788c0.338,0.824,2.307,1.904,3.013,2.487c2.016,1.665,4.032,3.33,6.049,4.995
			c1.978,1.633,4.154,3.742,3.808,6.283c-0.076,0.556-0.275,1.097-0.274,1.658c0.001,0.633,0.255,1.236,0.521,1.81
			c0.975,2.104,2.144,4.183,3.586,6.009c2.581,3.264,9.081,2.759,12.74,2.741c0.911-0.005,1.854-0.04,2.673-0.439
			c1.332-0.65,2.042-2.099,2.656-3.447C241.195,445.969,241.564,445.153,241.759,444.304z"/>
		<path style="fill:#CFB2A4;" d="M168.198,383.38c0.388,3.264,0.787,6.573,2.024,9.618c0.986,2.428,2.477,4.614,4.01,6.74
			c9.502,13.183,21.071,24.874,34.154,34.514c6.186-4.492,11.47-10.221,15.448-16.749c-8.659-10.162-16.508-21.015-23.446-32.422
			c-1.419-2.333-2.814-4.722-3.561-7.348c-1.076-3.784-0.74-7.807-0.395-11.726c1.337-15.199,2.674-30.397,4.011-45.596
			c0.807-9.17,1.573-18.678-1.524-27.347c-8.589-24.036-40.037-16.744-40.865,7.055C157.123,326.841,165.034,356.754,168.198,383.38
			z"/>
	</g>
	<g>
		<path style="fill:#E5D1BD;" d="M795.248,409.759c0.09-0.324,0.203-0.64,0.349-0.945c1.357-2.849,4.507-2.955,6.36-5.059
			c0.827-0.938,0.919-4.676,2.864-3.958c0.716,0.271,3.204,0.977,5.655,1.84c2.161-0.062,4.329-0.027,6.475-0.293
			c5.43-0.673,16.106-8.493,20.279-2.245c0.807,1.208,1.629,2.45,1.965,3.864c0.275,1.156,0.208,2.364,0.085,3.546
			c-0.096,0.921-0.029,2.405-0.727,2.976c-0.734,0.599-3.121,0.612-4.075,0.799c-2.727,0.535-5.455,1.071-8.182,1.606
			c-2.675,0.525-5.777,1.394-6.74,3.944c-0.211,0.558-0.298,1.164-0.583,1.688c-0.321,0.591-0.863,1.026-1.403,1.428
			c-1.977,1.473-4.122,2.824-6.394,3.801c-4.064,1.743-9.884-2.019-13.295-3.889c-0.849-0.466-1.713-0.976-2.276-1.764
			c-0.915-1.281-0.845-2.995-0.737-4.566C794.932,411.601,795,410.652,795.248,409.759z"/>
		<path style="fill:#6E8E7C;" d="M894.844,390.062c-2.015,2.854-4.063,5.745-6.761,7.965c-2.151,1.77-4.651,3.058-7.16,4.269
			c-15.555,7.51-32.286,12.579-49.394,14.965c-3.508-7.33-5.546-15.359-5.958-23.475c13.238-5.114,26.068-11.283,38.327-18.431
			c2.507-1.462,5.021-2.988,7.048-5.065c2.922-2.992,4.644-6.922,6.306-10.759c6.445-14.882,12.89-29.763,19.336-44.645
			c3.889-8.979,7.986-18.253,15.27-24.786c20.197-18.116,45.896,4.621,34.621,27.283
			C933.819,342.827,911.28,366.779,894.844,390.062z"/>
	</g>
	<g>
		<path style="opacity:0.15;" d="M395.287,359.689c1.924-1.25,3.922-2.62,4.921-4.685c0.723-1.495,0.759-3.485-0.436-4.637
			c-0.865-0.834-2.144-1.041-3.195-1.624c-1.922-1.066-2.904-3.286-3.352-5.437c-0.448-2.151-0.497-4.39-1.192-6.475
			c-0.235-0.704-0.736-1.507-1.474-1.429c-0.801,0.085-1.081,1.095-1.153,1.898c-0.494,5.508-0.368,11.05-0.048,16.564
			c0.104,1.789-0.388,5.705,0.714,7.204C391.257,362.682,394.074,360.476,395.287,359.689z"/>
		<path style="fill:#EACDB0;" d="M391.287,350.453c-0.2-1.31-0.187-2.8-0.258-3.637c-0.405-4.736-0.125-9.507-0.539-14.236
			c-1.616,0.142-3.416,0.811-4.136,2.274c-0.799,1.624-0.965,3.908-1.351,5.672c-0.994,4.544-1.989,9.089-2.983,13.633
			c-0.092,0.421-0.185,0.851-0.148,1.282c0.055,0.631,0.38,1.19,0.708,1.713c1.429,2.273,3.003,5.665,5.945,5.528
			c2.829-0.132,6.183-2.96,8.37-4.713c0.86-0.69,1.708-1.488,2.113-2.566c0.405-1.078,0.229-2.497-0.657-3.147
			c-0.495-0.363-1.118-0.435-1.714-0.453c-1.527-0.045-3.304,1.956-4.465,0.894C391.689,352.254,391.432,351.401,391.287,350.453z"
			/>
	</g>
	<path style="opacity:0.06;" d="M1029.762,759.163l-942.736-4.078c-30.446,0-35.3-20.09-35.3-49.902v0
		c0-29.813,4.854-58.059,35.3-58.059l942.736,4.078c30.446,0,55.127,24.168,55.127,53.981v0
		C1084.889,734.995,1060.208,759.163,1029.762,759.163z"/>
</g>
</svg>
